<?xml version="1.0" encoding="utf-8"?><!-- Uploaded to: SVG Repo, www.svgrepo.com, Generator: SVG Repo Mixer Tools -->
<svg width="800px" height="800px" viewBox="0 0 89.0482 89.0482" xmlns="http://www.w3.org/2000/svg"><defs><style>.a{fill:#f6d775;}.b{fill:#231f20;}.b,.c,.d,.f,.g{fill-rule:evenodd;}.c{fill:#f58220;}.d{fill:#438d80;}.e,.f{fill:#f9ddd1;}.g{fill:#b5774d;}</style></defs><circle class="a" cx="44.5241" cy="44.5241" r="43.524"/><path class="b" d="M44.5241,0a44.5251,44.5251,0,1,1-31.483,13.0411A44.3855,44.3855,0,0,1,44.5241,0ZM74.5932,14.455A42.5247,42.5247,0,1,0,87.048,44.5241,42.392,42.392,0,0,0,74.5932,14.455Z"/><path class="c" d="M56.8866,57.299,60.76,53.7727c0,3.3837,2.6067,4.0751,5.254,4.2732,4.0825.3059,6.7487,2.6895,6.9721,7.3486.0031.062-.0082.4011-.0082.4966-1.0559-.9519-2.94-.7943-4.1057-.4467.1284-3.8452-3.0314-3.9263-5.56-4.1471a5.4286,5.4286,0,0,1-4.7372-5.4882c-.1548,2.7476.7123,4.9731,2.9962,6.3085,3.3664,1.9681,5.4686,2.08,5.8938,8.1936a3.9646,3.9646,0,0,0-3.8242-.7447c-.0491-2.537-1.5571-3.2567-3.2749-4.028A6.6255,6.6255,0,0,1,56.8866,57.299Z"/><path class="b" d="M56.2147,56.5606l3.8739-3.5263a.9981.9981,0,0,1,1.67.7384H61.76A2.6822,2.6822,0,0,0,62.9258,56.26a7.13,7.13,0,0,0,3.1629.79,8.4286,8.4286,0,0,1,5.6721,2.4435,8.8362,8.8362,0,0,1,2.2218,5.8544l.0008.0641c0,.0742-.0028.1865-.0051.2925l0,.0057-.0037.1967a.9962.9962,0,0,1-1.6626.7248l-.0017.0017a2.0489,2.0489,0,0,0-1.1556-.4377,5.3268,5.3268,0,0,0-1.9968.2058.9986.9986,0,0,1-1.28-1.042c.0525-2.4389-1.9-2.8151-3.77-2.99,2.4585,1.3441,3.9853,2.5727,4.3541,7.8757a.9984.9984,0,0,1-1.6379.8312,2.973,2.973,0,0,0-2.7643-.5726l-.2384.0436a.9961.9961,0,0,1-1.1764-.9921,2.6717,2.6717,0,0,0-.7183-1.9576A6.7565,6.7565,0,0,0,59.96,66.4487a7.4935,7.4935,0,0,1-3.8376-3.9351,7.767,7.767,0,0,1-.1811-5.5349.9955.9955,0,0,1,.2735-.4181Zm3.8577-.8119-.4926.4488a4.5758,4.5758,0,0,0,1.1106,2.66,4.0778,4.0778,0,0,0,2.7079,1.4437v0l.345.0294c2.6115.2192,5.6171.472,6.0712,3.9028a6.79,6.79,0,0,1,1.5509-.0224c.1709.0184.3407.0448.5082.08a6.2852,6.2852,0,0,0-1.5585-3.4225A6.5054,6.5054,0,0,0,65.94,59.042a8.8881,8.8881,0,0,1-4.0768-1.0941,4.2332,4.2332,0,0,1-1.7909-2.1992Zm7.8052,9.6106.71-.8719a.9989.9989,0,0,0-.71.8719Zm-9.5763-5.3436a7.48,7.48,0,0,1-.6046-1.9394,5.7527,5.7527,0,0,0,.2619,3.664,5.4977,5.4977,0,0,0,2.8137,2.888,8.2475,8.2475,0,0,1,2.56,1.5551,4.2152,4.2152,0,0,1,1.1844,2.2251,4.1283,4.1283,0,0,1,1.7348.1234c-.5449-3.0538-1.8417-3.7463-3.754-4.7659-.4836-.2577-.9989-.5327-1.43-.7849l.0017-.0032-.0017-.0008A6.7343,6.7343,0,0,1,58.3013,60.0157Z"/><path class="d" d="M64.0851,83.3772a43.573,43.573,0,0,1-39.122,0c-.0516-.5808-.08-1.1679-.08-1.762a19.6407,19.6407,0,0,1,39.2814,0C64.1648,82.2093,64.1367,82.7964,64.0851,83.3772Z"/><path class="b" d="M64.5344,84.2678a44.4666,44.4666,0,0,1-40.0206,0,.9978.9978,0,0,1-.548-.866c-.0258-.2987-.0456-.5853-.0581-.8574-.0159-.35-.0244-.6625-.0244-.9292a20.6408,20.6408,0,0,1,41.2816,0c0,.2667-.0085.5788-.0244.9292-.0133.2905-.0349.5978-.0632.9187a.9952.9952,0,0,1-.5437.803l.0008.0017ZM54.36,85.87a42.2175,42.2175,0,0,0,8.7738-3.1348l.0145-.2772c.0105-.2364.0164-.5159.0164-.843a18.6406,18.6406,0,1,0-37.2812,0c0,.3271.0059.6066.0164.843l.0145.2772A42.6845,42.6845,0,0,0,54.36,85.87Z"/><circle class="e" cx="44.5241" cy="66.439" r="7.8846"/><path class="b" d="M44.5241,57.5544a8.8855,8.8855,0,1,1-6.2821,2.6025,8.8564,8.8564,0,0,1,6.2821-2.6025Zm4.8682,4.0164a6.8852,6.8852,0,1,0,2.0163,4.8682A6.8633,6.8633,0,0,0,49.3923,61.5708Z"/><path class="f" d="M63.5386,47.3568a4.9312,4.9312,0,1,1-4.9311,4.9311A4.931,4.931,0,0,1,63.5386,47.3568Z"/><path class="b" d="M63.5386,46.3567a5.9319,5.9319,0,1,1-4.1938,1.7374,5.9134,5.9134,0,0,1,4.1938-1.7374Zm2.78,3.1513a3.9324,3.9324,0,1,0,1.1511,2.78A3.92,3.92,0,0,0,66.3186,49.508Z"/><path class="f" d="M25.51,47.3568a4.9312,4.9312,0,1,1-4.9312,4.9311A4.9309,4.9309,0,0,1,25.51,47.3568Z"/><path class="b" d="M25.51,46.3567a5.9317,5.9317,0,1,1-4.1939,1.7374A5.9131,5.9131,0,0,1,25.51,46.3567Zm2.78,3.1513a3.9322,3.9322,0,1,0,1.1512,2.78A3.92,3.92,0,0,0,28.29,49.508Z"/><path class="g" d="M66.3537,50.0607a8.92,8.92,0,0,1-8.1388,5.3961H30.833a8.8931,8.8931,0,0,1-7.9764-5.0525c-2.57-5.1622-3.4083-22.0153,2.2139-25.67,8.7466-5.6846,29.6512-5.73,38.64-.16C69.6609,28.2623,68.79,44.6437,66.3537,50.0607Z"/><path class="b" d="M67.2639,50.4669a10.31,10.31,0,0,1-3.6819,4.375,9.6528,9.6528,0,0,1-5.3671,1.6149H30.833a9.6534,9.6534,0,0,1-5.1978-1.5032l.0011-.0017A10.2618,10.2618,0,0,1,21.962,50.85c-1.52-3.0526-2.4678-9.938-1.9457-15.9939.4144-4.807,1.7688-9.1749,4.5111-10.957,4.5283-2.943,12.1255-4.4292,19.7271-4.46,7.6244-.0314,15.3165,1.3992,19.9792,4.2886,2.86,1.7722,4.2928,5.9782,4.7772,10.6469.6216,5.9947-.3,12.8758-1.747,16.0931ZM62.48,53.178a8.3015,8.3015,0,0,0,2.9631-3.5235c1.3326-2.9636,2.1716-9.4028,1.5832-15.0777-.4269-4.1148-1.5894-7.76-3.84-9.1542-4.3419-2.69-11.6363-4.0221-18.9241-3.9921-7.2556.03-14.4471,1.4091-18.6489,4.14-2.1452,1.3944-3.238,5.1925-3.6051,9.449-.4941,5.7317.3572,12.1564,1.7427,14.94a8.25,8.25,0,0,0,2.95,3.3069h.004a7.6646,7.6646,0,0,0,4.1275,1.1908H58.2149A7.67,7.67,0,0,0,62.48,53.178Z"/><circle class="e" cx="44.5241" cy="47.126" r="19.5001"/><path class="b" d="M44.5241,26.6259A20.5012,20.5012,0,1,1,30.0286,32.63a20.436,20.436,0,0,1,14.4955-6.0046Zm13.0816,7.4185A18.5006,18.5006,0,1,0,63.0241,47.126,18.4424,18.4424,0,0,0,57.6057,34.0444Z"/><path class="b" d="M36.18,49.7566a2.5314,2.5314,0,1,1-2.5313,2.5313A2.5313,2.5313,0,0,1,36.18,49.7566Z"/><path class="b" d="M52.8676,49.7566a2.5314,2.5314,0,1,1-2.5313,2.5313A2.5313,2.5313,0,0,1,52.8676,49.7566Z"/><path class="g" d="M44.2418,57.6324c-2.8608-1.2334-7.672-.5415-7.672,3.61v5.0355c0,1.7146,2.8091,1.9913,3.44-.7986V61.6556c1.2742-1.1767,7.1859-1.1807,8.4643,0v3.8233c.6307,2.79,3.44,2.5132,3.44.7986v-5.11C51.9137,57.0323,47.0628,56.4169,44.2418,57.6324Z"/><path class="b" d="M43.8472,58.5505a6.1673,6.1673,0,0,0-2.3947-.468,5.1914,5.1914,0,0,0-2.2711.4765,2.7665,2.7665,0,0,0-1.3663,1.3782A3.2736,3.2736,0,0,0,37.57,61.242v5.0355a.2665.2665,0,0,0,.1051.2361.4233.4233,0,0,0,.2047.0609l.004,0v0a.7321.7321,0,0,0,.33-.066,1.6019,1.6019,0,0,0,.7963-1.1367V61.6556a.9988.9988,0,0,1,.3957-.7968c.8714-.724,2.8834-1.0874,4.8393-1.0874,2.0084,0,4.0748.3829,4.9051,1.15a.9953.9953,0,0,1,.322.7345h.0023v3.7162a1.6021,1.6021,0,0,0,.7962,1.1367.7326.7326,0,0,0,.33.066.43.43,0,0,0,.2083-.0609.2667.2667,0,0,0,.1055-.2361v-5.11a3.1908,3.1908,0,0,0-.2384-1.2722,2.703,2.703,0,0,0-1.35-1.3488,5.2157,5.2157,0,0,0-2.26-.4682,6.273,6.273,0,0,0-2.4295.4725.9967.9967,0,0,1-.7892,0Zm-2.3947-2.4681a8.3364,8.3364,0,0,1,2.79.4762,8.4642,8.4642,0,0,1,2.8238-.4808,7.215,7.215,0,0,1,3.1349.6713,4.661,4.661,0,0,1,2.3108,2.3567,5.16,5.16,0,0,1,.4022,2.0614v5.11a2.2072,2.2072,0,0,1-1.0273,1.9159,2.4264,2.4264,0,0,1-1.1772.3733,2.7209,2.7209,0,0,1-1.2436-.23,3.56,3.56,0,0,1-1.9442-2.5526,1.0043,1.0043,0,0,1-.0477-.3053v-3.285a9.58,9.58,0,0,0-3.2292-.4224,9.6158,9.6158,0,0,0-3.2349.4227v3.2847h-.0028a1.0025,1.0025,0,0,1-.0244.2189,3.5878,3.5878,0,0,1-1.9647,2.639,2.7206,2.7206,0,0,1-1.2436.23v0a2.4273,2.4273,0,0,1-1.1775-.373,2.207,2.207,0,0,1-1.027-1.9159V61.242a5.2416,5.2416,0,0,1,.4091-2.094,4.7263,4.7263,0,0,1,2.32-2.3782A7.1828,7.1828,0,0,1,41.4525,56.0824Z"/><path class="c" d="M20.5546,37.5152h9.3929l3.458-1.8579,10.7986-.1111,11.4471.5584,3.1323,1.4106h9.29a.7.7,0,0,1,.6931.7038v7.0291a.7.7,0,0,1-.6931.7044H20.5546a.7.7,0,0,1-.6931-.7044V38.219A.7.7,0,0,1,20.5546,37.5152Z"/><path class="b" d="M20.5546,36.5151H29.7l3.2327-1.7368a.994.994,0,0,1,.5272-.1176L44.1961,34.55l.0547.0012V34.55l11.4472.5584a.9945.9945,0,0,1,.3631.0868l0-.0009,2.9327,1.3207h9.0791a1.6826,1.6826,0,0,1,1.2005.5074,1.7054,1.7054,0,0,1,.4926,1.1965v7.0291a1.7072,1.7072,0,0,1-.4926,1.197,1.6822,1.6822,0,0,1-1.2005.5074H20.5546a1.6824,1.6824,0,0,1-1.2005-.5074,1.7072,1.7072,0,0,1-.4926-1.197V38.219a1.7059,1.7059,0,0,1,.4926-1.1965,1.6828,1.6828,0,0,1,1.2005-.5074Zm9.3929,2H20.8616v6.4372H67.7662V38.5152H58.7835v-.0014a.9962.9962,0,0,1-.41-.0884l-2.9625-1.334-11.2439-.5485-10.5018.108-3.1912,1.7144A.9952.9952,0,0,1,29.9475,38.5152Z"/><path class="g" d="M30.2741,42.3681l1.908-3.3049,1.6545-2.8659,1.6546,2.8659,1.908,3.3049,1.908-3.3049,1.6546-2.8659,1.6546,2.8659,1.908,3.3049,1.908-3.3049,1.6546-2.8659,1.6545,2.8659,1.908,3.3049,1.908-3.3049,1.6543-2.8653,1.6543,2.8653,1.908,3.3049,1.908-3.3049,1.6643-2.8826c.8183-4.4064,1.2067-2.3468,1.2067-4.0164V31.1477c0-2.209.33-3.7179-1.8564-4.0164l-17.1678-2.344-17.1777,2.344c-2.1866.2982-1.8564,1.81-1.8564,4.0164v1.0165c0,1.5644.14.5477,1.207,4.0164l1.6643,2.8826Z"/><path class="b" d="M25.8384,36.6767a.9958.9958,0,0,1,1.7269-.9922L29.23,38.5671l1.0446,1.8094,1.0445-1.8094,1.6546-2.8658a.9961.9961,0,0,1,1.7351.0141l1.6464,2.8517,1.0445,1.8094,1.0446-1.8094,1.6546-2.8658a.9961.9961,0,0,1,1.7351.0141L43.48,38.5671l1.0446,1.8094,1.0446-1.8094,1.6545-2.8658a.9961.9961,0,0,1,1.7351.0141l1.6464,2.8517L51.65,40.3765l1.0446-1.8094.0017-.0028-.0017-.0012,1.6543-2.8652a.9978.9978,0,0,1,1.7269,0L57.73,38.5631l.0306.0573,1.0139,1.7561,1.0446-1.8094,1.6642-2.8826a.9958.9958,0,0,1,1.7269.9922l-1.6642,2.8825-1.9,3.2908a.9961.9961,0,0,1-1.7351.0141l-1.8768-3.251-.0312-.05-.7909-1.37-.7908,1.37-.0017-.0011L52.5212,42.85a.9961.9961,0,0,1-1.7351.0141l-1.908-3.3049-.7911-1.37-.7912,1.37-1.9,3.2908a.9961.9961,0,0,1-1.735.0141l-1.908-3.3049-.7912-1.37-.7911,1.37-1.9,3.2908a.9961.9961,0,0,1-1.7351.0141l-1.908-3.3049-.7912-1.37-.7911,1.37-1.9,3.2908a.9961.9961,0,0,1-1.7351.0141l-1.908-3.3049Z"/></svg>