<svg xmlns="http://www.w3.org/2000/svg" width="1em" height="1em" viewBox="0 0 56 56">
    <path fill="#ff5c36" d="M8.184 37.398c0 9.75 7.453 16.243 18.632 16.243c12.586 0 21-8.485 21-21.258c0-21.211-18.093-30.024-30.398-30.024c-2.461 0-4.055.868-4.055 2.579c0 .656.282 1.359.797 1.945c2.742 3.305 5.531 7.125 5.602 11.601c0 .422 0 .82-.047 1.243c-1.313-2.461-3.516-4.22-5.766-4.22c-1.125 0-1.922.821-1.922 2.063c0 .586.188 2.04.188 3.047c0 4.899-4.031 8.203-4.031 16.781m3.89 0c0-7.265 4.008-10.289 4.196-17.015c1.335 1.687 2.296 3.726 2.625 6.656c.046.469.328.656.75.656c2.226 0 3.515-5.648 3.515-9.21c0-4.571-1.945-9.352-4.969-12.422C34.223 7.352 43.785 18.25 43.785 32.219c0 10.547-6.68 17.554-16.664 17.554c-9.047 0-15.047-4.945-15.047-12.375m15.375 9.657c5.742 0 8.555-4.22 8.555-9c0-4.735-2.719-10.008-8.063-12.47c-.21-.093-.351.024-.328.259c.305 4.054.07 7.289-1.148 9.422c-.14.21-.305.187-.399-.047c-.562-1.407-1.265-2.602-2.367-3.586c-.187-.164-.328-.094-.351.14c-.399 2.72-3.422 4.243-3.422 8.508c0 4.055 3 6.774 7.523 6.774"/>
</svg>
